<svg width="45" height="34" viewBox="0 0 45 34" fill="none" xmlns="http://www.w3.org/2000/svg">
<path d="M39.0217 28.8763H11.9948L6.27157 1.821H1.38721V0.607056H7.25558L12.9788 27.6622H39.0217V28.8763Z" fill="#F1F6F9"/>
<path d="M15.9555 33.819C17.3922 33.819 18.5569 32.6543 18.5569 31.2175C18.5569 29.7808 17.3922 28.6161 15.9555 28.6161C14.5187 28.6161 13.354 29.7808 13.354 31.2175C13.354 32.6543 14.5187 33.819 15.9555 33.819Z" fill="#F1F6F9"/>
<path d="M35.3798 33.819C36.8165 33.819 37.9812 32.6543 37.9812 31.2175C37.9812 29.7808 36.8165 28.6161 35.3798 28.6161C33.943 28.6161 32.7783 29.7808 32.7783 31.2175C32.7783 32.6543 33.943 33.819 35.3798 33.819Z" fill="#F1F6F9"/>
<path d="M38.529 28.3045H12.2334L7.59375 5.37634H42.883C43.0631 5.37636 43.241 5.41539 43.4046 5.49073C43.5681 5.56607 43.7134 5.67595 43.8304 5.8128C43.9475 5.94964 44.0335 6.11022 44.0825 6.28348C44.1316 6.45674 44.1426 6.63857 44.1146 6.81646L39.7605 27.2514C39.7155 27.5454 39.5665 27.8135 39.3404 28.0068C39.1144 28.2001 38.8264 28.3058 38.529 28.3045V28.3045ZM12.5189 27.9577H38.529C38.7437 27.9586 38.9515 27.8823 39.1146 27.7428C39.2777 27.6033 39.3853 27.4098 39.4177 27.1976L43.7718 6.7626C43.792 6.63421 43.7842 6.50296 43.7488 6.3779C43.7134 6.25284 43.6513 6.13694 43.5669 6.03816C43.4824 5.93938 43.3775 5.86007 43.2595 5.8057C43.1414 5.75133 43.013 5.72319 42.883 5.7232H8.01479L12.5189 27.9577Z" fill="#F1F6F9"/>
<path d="M17.3456 28.2312L14.3071 5.57801L14.6493 5.52148L17.6877 28.1746L17.3456 28.2312Z" fill="#F1F6F9"/>
<path d="M34.2404 28.0573L33.8979 28.0018L36.8476 5.52203L37.1901 5.57754L34.2404 28.0573Z" fill="#F1F6F9"/>
<path d="M26.1906 5.54977H25.8438V28.2029H26.1906V5.54977Z" fill="#F1F6F9"/>
<path d="M9.36559 11.6198L9.36475 11.9667L42.9405 12.048L42.9413 11.7011L9.36559 11.6198Z" fill="#F1F6F9"/>
<path d="M40.5722 22.3347L11.0752 22.5364L11.0776 22.8832L40.5746 22.6816L40.5722 22.3347Z" fill="#F1F6F9"/>
<path d="M1.90774 2.08117C2.96135 2.08117 3.81548 1.61528 3.81548 1.04058C3.81548 0.465885 2.96135 0 1.90774 0C0.854125 0 0 0.465885 0 1.04058C0 1.61528 0.854125 2.08117 1.90774 2.08117Z" fill="#F1F6F9"/>
</svg>
